<svg xmlns="http://www.w3.org/2000/svg" viewBox="0 0 24 24" width="24" height="24" fill="none" stroke="currentColor" stroke-width="2" stroke-linecap="round" stroke-linejoin="round">
  <circle cx="12" cy="12" r="3"/>
  <path d="M19.4 15a1.65 1.65 0 0 0 .33 1.82l.06.06a2 2 0 1 1-2.83 2.83l-.06-.06a1.65 1.65 0 0 0-1.82-.33 1.65 1.65 0 0 0-1 1.51V21a2 2 0 1 1-4 0v-.07a1.65 1.65 0 0 0-1-1.51 1.65 1.65 0 0 0-1.82.33l-.06.06a2 2 0 1 1-2.83-2.83l.06-.06a1.65 1.65 0 0 0 .33-1.82A1.65 1.65 0 0 0 3 12H3a2 2 0 1 1 0-4h.07a1.65 1.65 0 0 0 1.51-1 1.65 1.65 0 0 0-.33-1.82l-.06-.06A2 2 0 1 1 7.02 2.3l.06.06a1.65 1.65 0 0 0 1.82.33H9a1.65 1.65 0 0 0 1-1.51V1a2 2 0 1 1 4 0v.07a1.65 1.65 0 0 0 1 1.51h.1a1.65 1.65 0 0 0 1.72-.39l.06-.06A2 2 0 1 1 21.7 7.02l-.06.06a1.65 1.65 0 0 0-.33 1.82V9c.66.28 1.12.94 1.12 1.7s-.46 1.42-1.12 1.7z"/>
</svg>